<?xml version="1.0" encoding="UTF-8"?>
<svg width="9px" height="15px" viewBox="0 0 9 15" version="1.1" xmlns="http://www.w3.org/2000/svg" xmlns:xlink="http://www.w3.org/1999/xlink">
    <!-- Generator: Sketch 53.2 (72643) - https://sketchapp.com -->
    <title>a</title>
    <desc>Created with Sketch.</desc>
    <g id="Page-1" stroke="none" stroke-width="1" fill="none" fill-rule="evenodd">
        <g id="All-Surveys" transform="translate(-1308.000000, -321.000000)" fill="#919EAB" fill-rule="nonzero">
            <path d="M1316.45311,329.093769 L1310.13671,335.453129 C1310.02213,335.567712 1309.90039,335.625003 1309.77148,335.625003 C1309.64258,335.625003 1309.52083,335.582035 1309.40625,335.496097 L1308.54687,334.636724 C1308.46094,334.522141 1308.41797,334.393235 1308.41797,334.250007 C1308.41797,334.106778 1308.46094,333.992195 1308.54687,333.906257 L1313.66014,328.75002 L1308.54687,323.593782 C1308.46094,323.507845 1308.41797,323.393261 1308.41797,323.250033 C1308.41797,323.106804 1308.46094,322.977898 1308.54687,322.863315 L1309.40625,322.003942 C1309.52083,321.918005 1309.64258,321.875036 1309.77148,321.875036 C1309.90039,321.875036 1310.02213,321.918005 1310.13671,322.003942 L1316.45311,328.363302 C1316.53904,328.477885 1316.58201,328.606791 1316.58201,328.75002 C1316.58201,328.893248 1316.53904,329.022154 1316.45311,329.136737 L1316.45311,329.093769 Z" id="a"></path>
        </g>
    </g>
</svg>