<?xml version="1.0" encoding="UTF-8"?>
<svg width="22px" height="21px" viewBox="0 0 22 21" version="1.1" xmlns="http://www.w3.org/2000/svg" xmlns:xlink="http://www.w3.org/1999/xlink">
    <!-- Generator: Sketch 53.2 (72643) - https://sketchapp.com -->
    <title>g</title>
    <desc>Created with Sketch.</desc>
    <g id="Page-1" stroke="none" stroke-width="1" fill="none" fill-rule="evenodd">
        <g id="All-Surveys" transform="translate(-1334.000000, -420.000000)" fill="#919EAB" fill-rule="nonzero">
            <path d="M1341.47655,436.808599 C1341.47655,436.923182 1341.39777,436.987635 1341.24022,437.001958 C1341.08267,437.016281 1341.00389,436.966151 1341.00389,436.851568 C1341.00389,436.736984 1341.07551,436.679693 1341.21873,436.679693 C1341.30467,436.679693 1341.36912,436.694016 1341.41209,436.722662 C1341.45506,436.751308 1341.47655,436.779953 1341.47655,436.808599 Z M1340.14452,436.636724 C1340.17316,436.522141 1340.2591,436.486334 1340.40233,436.529303 C1340.54556,436.572271 1340.61001,436.629563 1340.59569,436.701177 C1340.58137,436.772792 1340.54556,436.822922 1340.48827,436.851568 C1340.43098,436.880214 1340.37368,436.880214 1340.31639,436.851568 C1340.2591,436.822922 1340.20897,436.787115 1340.166,436.744146 C1340.12303,436.701177 1340.11587,436.66537 1340.14452,436.636724 Z M1342.03514,436.550787 C1342.17837,436.550787 1342.25714,436.593756 1342.27147,436.679693 C1342.28579,436.76563 1342.22134,436.837245 1342.07811,436.894536 C1342.02082,436.894536 1341.97068,436.887375 1341.92772,436.873052 C1341.88475,436.858729 1341.8561,436.808599 1341.84178,436.722662 C1341.82746,436.636724 1341.89191,436.579433 1342.03514,436.550787 Z M1344.87107,420.093795 C1346.81898,420.093795 1348.62366,420.552128 1350.28512,421.468792 C1351.94657,422.385456 1353.24995,423.631547 1354.19527,425.207064 C1355.16922,426.839873 1355.6562,428.630233 1355.6562,430.578145 C1355.6562,432.955743 1354.99019,435.082691 1353.65816,436.958989 C1352.32613,438.835287 1350.5859,440.131508 1348.43747,440.847652 C1348.2083,440.904943 1348.02926,440.876298 1347.90036,440.761715 C1347.77145,440.647131 1347.707,440.503903 1347.707,440.332028 L1347.707,436.722662 C1347.707,435.805997 1347.46351,435.147144 1346.97653,434.746104 C1348.03643,434.631521 1348.82418,434.488292 1349.33981,434.316417 C1350.14189,434.02996 1350.75777,433.600273 1351.18746,433.027358 C1351.67444,432.282568 1351.91793,431.265643 1351.91793,429.976584 C1351.91793,429.432314 1351.81767,428.959659 1351.61715,428.558619 C1351.47392,428.272161 1351.20178,427.914089 1350.80074,427.484402 C1350.91533,427.197945 1350.98694,426.854195 1351.01559,426.453155 C1351.04423,425.822948 1350.94397,425.192741 1350.7148,424.562534 C1350.42835,424.476597 1350.02731,424.533888 1349.51168,424.734409 C1349.16793,424.877638 1348.76689,425.078158 1348.30856,425.33597 L1347.74997,425.722688 C1346.86195,425.464876 1345.95245,425.33597 1345.02146,425.33597 C1344.09047,425.33597 1343.19529,425.464876 1342.33592,425.722688 L1341.77733,425.33597 C1341.31899,425.078158 1340.90363,424.877638 1340.53124,424.734409 C1340.01561,424.533888 1339.62889,424.476597 1339.37108,424.562534 C1339.11327,425.192741 1339.01301,425.822948 1339.0703,426.453155 C1339.0703,426.854195 1339.12759,427.183622 1339.24218,427.441434 C1338.89843,427.87112 1338.64778,428.265 1338.49022,428.623072 C1338.33267,428.981143 1338.2539,429.432314 1338.2539,429.976584 C1338.2539,431.265643 1338.48306,432.268245 1338.9414,432.984389 C1339.34244,433.58595 1339.944,434.02996 1340.74608,434.316417 C1341.2617,434.488292 1342.03514,434.631521 1343.06639,434.746104 C1342.69399,435.089853 1342.46482,435.576831 1342.37889,436.207038 C1341.89191,436.436204 1341.41925,436.522141 1340.96092,436.46485 C1340.21613,436.407558 1339.64322,436.020841 1339.24218,435.304696 C1339.0703,434.989593 1338.84114,434.731781 1338.55468,434.531261 C1338.35416,434.416677 1338.13931,434.316417 1337.91015,434.23048 L1337.60937,434.187511 C1337.29426,434.187511 1337.12955,434.237642 1337.11523,434.337902 C1337.10091,434.438162 1337.16536,434.545583 1337.30859,434.660167 L1337.52343,434.832041 C1337.72395,434.946624 1337.92447,435.132822 1338.12499,435.390634 C1338.29687,435.591154 1338.44009,435.82032 1338.55468,436.078132 L1338.72655,436.421881 C1338.86978,436.851568 1339.14192,437.180994 1339.54296,437.41016 C1339.88671,437.610681 1340.30207,437.739587 1340.78905,437.796878 C1341.1328,437.825524 1341.49087,437.811201 1341.86326,437.753909 L1342.33592,437.710941 L1342.37889,440.332028 C1342.37889,440.503903 1342.31443,440.647131 1342.18553,440.761715 C1342.05662,440.876298 1341.87759,440.904943 1341.64842,440.847652 C1339.47134,440.131508 1337.70963,438.835287 1336.36328,436.958989 C1335.01693,435.082691 1334.34375,432.955743 1334.34375,430.578145 C1334.34375,428.630233 1334.80208,426.854195 1335.71875,425.250033 C1336.63541,423.64587 1337.89583,422.385456 1339.49999,421.468792 C1341.10415,420.552128 1342.89451,420.093795 1344.87107,420.093795 Z M1338.51171,434.917978 C1338.569,434.860687 1338.64061,434.87501 1338.72655,434.960947 C1338.81249,435.046884 1338.82681,435.118499 1338.76952,435.17579 C1338.71223,435.233082 1338.64061,435.218759 1338.55468,435.132822 C1338.46874,435.046884 1338.45442,434.97527 1338.51171,434.917978 Z M1338.03905,434.574229 C1338.09635,434.516938 1338.16796,434.509776 1338.2539,434.552745 C1338.33983,434.595714 1338.36848,434.653005 1338.33983,434.72462 C1338.31119,434.796234 1338.24674,434.803395 1338.14648,434.746104 C1338.04622,434.688813 1338.01041,434.631521 1338.03905,434.574229 Z M1339.45702,436.078132 C1339.48567,436.049486 1339.52863,436.042325 1339.58593,436.056648 C1339.64322,436.07097 1339.69335,436.099616 1339.73632,436.142585 C1339.77928,436.185554 1339.80793,436.235684 1339.82225,436.292975 C1339.83658,436.350267 1339.82941,436.393235 1339.80077,436.421881 C1339.71483,436.507818 1339.61457,436.493496 1339.49999,436.378912 C1339.4427,436.321621 1339.41405,436.264329 1339.41405,436.207038 C1339.41405,436.149747 1339.42837,436.106778 1339.45702,436.078132 Z M1338.9414,435.476571 C1338.99869,435.447925 1339.04882,435.440764 1339.09179,435.455087 C1339.13475,435.469409 1339.17056,435.505217 1339.19921,435.562508 C1339.28514,435.677091 1339.28514,435.763029 1339.19921,435.82032 C1339.17056,435.848966 1339.13475,435.848966 1339.09179,435.82032 C1339.04882,435.791674 1338.99869,435.763029 1338.9414,435.734383 C1338.8841,435.591154 1338.8841,435.505217 1338.9414,435.476571 Z" id="g"></path>
        </g>
    </g>
</svg>