<?xml version="1.0" encoding="UTF-8"?>
<svg width="22px" height="23px" viewBox="0 0 22 23" version="1.1" xmlns="http://www.w3.org/2000/svg" xmlns:xlink="http://www.w3.org/1999/xlink">
    <!-- Generator: Sketch 53.2 (72643) - https://sketchapp.com -->
    <title>p</title>
    <desc>Created with Sketch.</desc>
    <g id="Page-1" stroke="none" stroke-width="1" fill="none" fill-rule="evenodd">
        <g id="All-Surveys" transform="translate(-1356.000000, -623.000000)" fill="#919EAB" fill-rule="nonzero">
            <path d="M1374.86324,623.750046 C1375.72261,623.750046 1376.46024,624.036504 1377.07612,624.609419 C1377.69201,625.182334 1377.99995,625.884156 1377.99995,626.714883 C1377.99995,627.373735 1377.58458,628.505243 1376.75386,630.109406 C1376.12365,631.398465 1375.30725,632.845077 1374.30464,634.449239 C1373.44527,635.79559 1372.81506,636.726577 1372.41402,637.242201 C1371.86975,637.9297 1371.33265,638.445323 1370.8027,638.789073 C1370.27275,639.132822 1369.69268,639.361988 1369.06247,639.476571 C1369.06247,641.367191 1368.47523,642.885417 1367.30075,644.031248 C1366.12628,645.177078 1364.55076,645.749993 1362.5742,645.749993 C1361.51431,645.749993 1360.55468,645.542312 1359.6953,645.126948 C1358.83593,644.711584 1358.10546,644.102862 1357.5039,643.300781 C1356.5013,641.897138 1356,640.106778 1356,637.9297 L1356,636.769546 C1356,636.626317 1356.07161,636.526057 1356.21484,636.468766 C1356.35807,636.411474 1356.47266,636.425797 1356.55859,636.511734 C1357.56119,637.457044 1358.44921,638.02996 1359.22265,638.23048 C1360.08202,636.253922 1361.52863,635.122415 1363.56248,634.835957 C1363.53384,634.263042 1363.60545,633.754579 1363.77733,633.31057 C1363.9492,632.866561 1364.22133,632.429713 1364.59373,632.000026 C1364.88019,631.627631 1365.35284,631.140653 1366.01169,630.539092 C1366.44138,630.138052 1367.27211,629.393261 1368.50388,628.304723 C1370.13669,626.872435 1371.51168,625.654989 1372.62887,624.652387 C1373.28772,624.050826 1374.03251,623.750046 1374.86324,623.750046 Z M1365.83982,642.570314 L1365.79685,642.570314 C1366.22654,642.197918 1366.54164,641.725263 1366.74216,641.152348 C1366.94268,640.579433 1367.02862,639.977872 1366.99997,639.347665 C1366.34112,639.17579 1365.75388,638.867848 1365.23826,638.423839 C1364.72264,637.97983 1364.32159,637.457044 1364.03514,636.855483 C1363.31899,636.912775 1362.73176,637.127618 1362.27342,637.500013 C1361.72915,637.872408 1361.29947,638.488292 1360.98436,639.347665 C1360.86978,639.691414 1360.66926,639.963549 1360.3828,640.164069 C1360.09634,640.36459 1359.7884,640.46485 1359.45898,640.46485 C1359.12955,640.46485 1358.74999,640.335944 1358.32031,640.078132 C1358.49218,640.851568 1358.77864,641.51042 1359.17968,642.05469 C1359.95312,643.143229 1361.08462,643.687498 1362.5742,643.687498 C1363.9492,643.687498 1365.03774,643.315103 1365.83982,642.570314 Z M1375.50777,628.003942 C1375.79422,627.488318 1375.93745,627.058632 1375.93745,626.714883 C1375.93745,626.485717 1375.83719,626.278034 1375.63667,626.091837 C1375.43615,625.90564 1375.1855,625.812541 1374.88472,625.812541 C1374.58394,625.812541 1374.29032,625.941447 1374.00386,626.199259 C1372.82939,627.259152 1371.3971,628.533888 1369.707,630.023468 C1368.30336,631.255237 1367.40101,632.071641 1366.99997,632.472681 C1366.42706,633.016951 1366.05466,633.439476 1365.88279,633.740256 C1365.71091,634.041037 1365.62498,634.391948 1365.62498,634.792988 C1365.62498,635.509133 1365.88279,636.132178 1366.39841,636.662124 C1366.91404,637.192071 1367.52992,637.457044 1368.24606,637.457044 C1368.7044,637.457044 1369.10544,637.371107 1369.44919,637.199233 C1369.85023,636.970067 1370.30856,636.54038 1370.82418,635.910173 C1371.36845,635.222675 1372.05595,634.191427 1372.88668,632.816431 C1373.54553,631.641954 1374.41923,630.037791 1375.50777,628.003942 Z" id="p"></path>
        </g>
    </g>
</svg>