<?xml version="1.0" encoding="UTF-8"?>
<svg width="9px" height="15px" viewBox="0 0 9 15" version="1.1" xmlns="http://www.w3.org/2000/svg" xmlns:xlink="http://www.w3.org/1999/xlink">
    <!-- Generator: Sketch 53.2 (72643) - https://sketchapp.com -->
    <title>a</title>
    <desc>Created with Sketch.</desc>
    <g id="Page-1" stroke="none" stroke-width="1" fill="none" fill-rule="evenodd">
        <g id="All-Surveys" transform="translate(-1313.000000, -705.000000)" fill="#919EAB" fill-rule="nonzero">
            <path d="M1313.54687,712.363302 L1319.86327,706.003942 C1319.97785,705.918005 1320.09959,705.875036 1320.2285,705.875036 C1320.35741,705.875036 1320.47915,705.918005 1320.59373,706.003942 L1321.45311,706.863315 C1321.53904,706.977898 1321.58201,707.106804 1321.58201,707.250033 C1321.58201,707.393261 1321.53904,707.507845 1321.45311,707.593782 L1316.33984,712.75002 L1321.45311,717.906257 C1321.53904,717.992195 1321.58201,718.106778 1321.58201,718.250007 C1321.58201,718.393235 1321.53904,718.522141 1321.45311,718.636724 L1320.59373,719.453129 C1320.47915,719.567712 1320.35741,719.625003 1320.2285,719.625003 C1320.09959,719.625003 1319.97785,719.582035 1319.86327,719.496097 L1313.54687,713.093769 C1313.46094,713.007832 1313.41797,712.893248 1313.41797,712.75002 C1313.41797,712.606791 1313.46094,712.477885 1313.54687,712.363302 Z" id="a"></path>
        </g>
    </g>
</svg>