<?xml version="1.0" encoding="UTF-8"?>
<svg width="90px" height="60px" viewBox="0 0 90 60" version="1.1" xmlns="http://www.w3.org/2000/svg" xmlns:xlink="http://www.w3.org/1999/xlink">
    <!-- Generator: Sketch 55.1 (78136) - https://sketchapp.com -->
    <title>v</title>
    <desc>Created with Sketch.</desc>
    <g id="Page-1" stroke="none" stroke-width="1" fill="none" fill-rule="evenodd">
        <path d="M84.9842334,5.00013113 C87.5779162,5.00013113 89.9997854,7.03137629 89.9997854,9.9219944 L89.9997854,50.0625847 C89.9997854,52.9532028 87.5779162,54.984448 84.9842334,54.984448 C84.0310191,54.984448 83.0311131,54.7187931 82.1404597,54.0937946 L64.999845,43.4219756 L64.999845,52.5312983 C64.999845,56.6561969 61.3748232,60 56.9061448,60 L8.09370019,60 C3.62502187,60 0,56.6561969 0,52.5312983 L0,7.46884473 C0,3.34394611 3.62502187,0.000143051147 8.09370019,0.000143051147 L56.9061448,0.000143051147 C61.3748232,0.000143051147 64.999845,3.34394611 64.999845,7.46884473 L64.999845,16.5781675 L82.1404597,5.89078452 C83.0311131,5.28134994 84.0154552,5.00013113 84.9842334,5.00013113 Z M57.4998629,7.67193872 C57.4061742,7.59381391 57.2186441,7.50012517 56.9061448,7.50012517 L8.09370019,7.50012517 C7.78120093,7.50012517 7.59367086,7.60953043 7.49998212,7.67193872 L7.49998212,52.3282043 C7.59367086,52.4063291 7.78120093,52.5000179 8.09370019,52.5000179 L56.9061448,52.5000179 C57.2186441,52.5000179 57.4061742,52.3906126 57.4998629,52.3282043 L57.4998629,7.67193872 Z M82.4998033,45.5000651 L82.4998033,14.5157945 L64.999845,25.421988 L64.999845,34.5938716 L82.4998033,45.5000651 Z" id="v" fill="#919EAB" fill-rule="nonzero"></path>
    </g>
</svg>