<?xml version="1.0" encoding="UTF-8"?>
<svg width="22px" height="23px" viewBox="0 0 22 23" version="1.1" xmlns="http://www.w3.org/2000/svg" xmlns:xlink="http://www.w3.org/1999/xlink">
    <!-- Generator: Sketch 53.2 (72643) - https://sketchapp.com -->
    <title>b</title>
    <desc>Created with Sketch.</desc>
    <g id="Page-1" stroke="none" stroke-width="1" fill="none" fill-rule="evenodd">
        <path d="M21.9140103,8.69924569 C21.9713016,8.89976627 21.9999475,9.1146095 21.9999475,9.34377541 L21.9999475,20.6874984 C21.9999475,21.2604134 21.799427,21.7473919 21.3983865,22.1484324 C20.997346,22.5494729 20.5103675,22.7499934 19.9374525,22.7499934 L2.06249508,22.7499934 C1.48958,22.7499934 1.00260156,22.5494729 0.601561066,22.1484324 C0.200520574,21.7473919 0,21.2604134 0,20.6874984 L0,9.34377541 C0,9.1146095 0.0429686476,8.89976627 0.128905943,8.69924569 L2.27733832,2.16801126 C2.42056693,1.73832479 2.67121781,1.39457561 3.02928965,1.13676372 C3.3873615,0.878951838 3.79556365,0.750045896 4.25389611,0.750045896 L17.7460514,0.750045896 C18.2043839,0.750045896 18.6125861,0.878951838 18.9706579,1.13676372 C19.3287297,1.39457561 19.5793806,1.73832479 19.7226092,2.16801126 L21.9140103,8.69924569 Z M19.8085465,9.00002623 L17.7460514,2.81254098 L12.0312213,2.81254098 L12.0312213,9.00002623 L19.8085465,9.00002623 Z M4.25389611,2.81254098 L2.19140103,9.00002623 L9.96872623,9.00002623 L9.96872623,2.81254098 L4.25389611,2.81254098 Z M2.06249508,20.6874984 L19.9374525,20.6874984 L19.9374525,11.0625213 L2.06249508,11.0625213 L2.06249508,20.6874984 Z" id="b" fill="#919EAB" fill-rule="nonzero"></path>
    </g>
</svg>