<?xml version="1.0" encoding="UTF-8"?>
<svg width="22px" height="22px" viewBox="0 0 22 22" version="1.1" xmlns="http://www.w3.org/2000/svg" xmlns:xlink="http://www.w3.org/1999/xlink">
    <!-- Generator: Sketch 53.2 (72643) - https://sketchapp.com -->
    <title>q</title>
    <desc>Created with Sketch.</desc>
    <g id="Page-1" stroke="none" stroke-width="1" fill="none" fill-rule="evenodd">
        <path d="M10.9999738,0.093795076 C12.9192402,0.093795076 14.6952775,0.573611859 16.3280861,1.53324477 C17.9608947,2.49287768 19.2571158,3.78909877 20.2167487,5.42190737 C21.1763816,7.05471598 21.6561984,8.83075319 21.6561984,10.7500197 C21.6561984,12.6692861 21.1763816,14.4453234 20.2167487,16.078132 C19.2571158,17.7109406 17.9608947,19.0071617 16.3280861,19.9667946 C14.6952775,20.9264275 12.9192402,21.4062443 10.9999738,21.4062443 C9.0807073,21.4062443 7.30467008,20.9264275 5.67186148,19.9667946 C4.03905287,19.0071617 2.74283178,17.7109406 1.78319887,16.078132 C0.823565963,14.4453234 0.34374918,12.6692861 0.34374918,10.7500197 C0.34374918,8.83075319 0.823565963,7.05471598 1.78319887,5.42190737 C2.74283178,3.78909877 4.03905287,2.49287768 5.67186148,1.53324477 C7.30467008,0.573611859 9.0807073,0.093795076 10.9999738,0.093795076 Z M10.9999738,19.3437492 C12.5468451,19.3437492 13.9791331,18.9570314 15.2968385,18.1835957 C16.6145439,17.41016 17.6601141,16.3645898 18.4335498,15.0468844 C19.2069855,13.729179 19.5937033,12.296891 19.5937033,10.7500197 C19.5937033,9.20314836 19.2069855,7.77086032 18.4335498,6.45315491 C17.6601141,5.1354495 16.6145439,4.0898793 15.2968385,3.31644364 C13.9791331,2.54300799 12.5468451,2.15629016 10.9999738,2.15629016 C9.45310246,2.15629016 8.02081443,2.54300799 6.70310902,3.31644364 C5.38540361,4.0898793 4.3398334,5.1354495 3.56639775,6.45315491 C2.79296209,7.77086032 2.40624426,9.20314836 2.40624426,10.7500197 C2.40624426,12.296891 2.79296209,13.729179 3.56639775,15.0468844 C4.3398334,16.3645898 5.38540361,17.41016 6.70310902,18.1835957 C8.02081443,18.9570314 9.45310246,19.3437492 10.9999738,19.3437492 Z M15.5976191,8.38674405 C15.5976191,9.16017971 15.3684532,9.81903209 14.9101207,10.3633018 C14.6236628,10.678405 14.1510077,11.0221542 13.4921553,11.3945494 C13.1484062,11.59507 12.9192402,11.7526212 12.804657,11.8672045 C12.6041364,12.0104331 12.5038764,12.1823077 12.5038764,12.3828283 L12.5038764,12.6406402 C12.5038764,12.7838688 12.4537461,12.9056137 12.3534862,13.0058737 C12.2532262,13.1061336 12.1314813,13.1562639 11.9882527,13.1562639 L10.0116949,13.1562639 C9.86846627,13.1562639 9.74672134,13.1061336 9.64646138,13.0058737 C9.54620142,12.9056137 9.49607111,12.7838688 9.49607111,12.6406402 L9.49607111,12.2539223 C9.49607111,11.59507 9.72523701,11.0364775 10.1835695,10.5781451 C10.4413814,10.3203332 10.8710678,10.0195527 11.4726289,9.67580348 L11.5585662,9.63283483 C11.9882527,9.37502295 12.2890332,9.17450237 12.4609078,9.03127377 C12.6614284,8.83075319 12.7616883,8.60158729 12.7616883,8.34377541 C12.7616883,8.00002623 12.5826521,7.71356836 12.2245802,7.48440246 C11.8665084,7.25523655 11.4654672,7.14065327 11.0214581,7.14065327 C10.577449,7.14065327 10.1978921,7.24091323 9.88278894,7.44143381 C9.62497705,7.6133084 9.30987386,7.94273491 8.93747869,8.4297127 C8.8515414,8.51565 8.74411978,8.57294131 8.61521383,8.60158729 C8.48630789,8.63023328 8.36456361,8.60158729 8.24998033,8.51565 L7.0468582,7.6133084 C6.93227492,7.5273711 6.86782195,7.41278782 6.85349928,7.26955922 C6.83917662,7.12633061 6.86066094,6.99742467 6.91795226,6.88284139 C7.46222201,6.10940573 8.07810574,5.52932899 8.7656041,5.14261116 C9.45310246,4.75589334 10.2838294,4.56253442 11.2577857,4.56253442 C11.945284,4.56253442 12.6327824,4.73440901 13.3202807,5.07815819 C14.0077791,5.42190737 14.5592099,5.88023983 14.9745737,6.45315491 C15.3899375,7.02607 15.5976191,7.67059971 15.5976191,8.38674405 Z M12.804657,15.5625082 C12.804657,16.049486 12.6256207,16.4720115 12.2675489,16.8300833 C11.909477,17.1881551 11.4869516,17.3671914 10.9999738,17.3671914 C10.512996,17.3671914 10.0904705,17.1881551 9.73239867,16.8300833 C9.37432683,16.4720115 9.19529058,16.049486 9.19529058,15.5625082 C9.19529058,15.0755304 9.37432683,14.6530049 9.73239867,14.2949331 C10.0904705,13.9368612 10.512996,13.757825 10.9999738,13.757825 C11.4869516,13.757825 11.909477,13.9368612 12.2675489,14.2949331 C12.6256207,14.6530049 12.804657,15.0755304 12.804657,15.5625082 Z" id="q" fill="#919EAB" fill-rule="nonzero"></path>
    </g>
</svg>