<?xml version="1.0" encoding="UTF-8"?>
<svg width="29px" height="36px" viewBox="0 0 29 36" version="1.1" xmlns="http://www.w3.org/2000/svg" xmlns:xlink="http://www.w3.org/1999/xlink">
    <!-- Generator: Sketch 53.2 (72643) - https://sketchapp.com -->
    <title>Combined Shape</title>
    <desc>Created with Sketch.</desc>
    <g id="Page-1" stroke="none" stroke-width="1" fill="none" fill-rule="evenodd">
        <g id="All-Surveys" transform="translate(-1231.000000, -757.000000)" fill="#919EAB">
            <g id="P-Logo" transform="translate(1231.000000, 757.000000)">
                <path d="M14.5,11.0541047 L10.6539191,11.7647671 C10.6210794,11.7707089 10.5904291,11.7917338 10.5694117,11.8223569 C10.5488322,11.8534371 10.5409507,11.889545 10.5479565,11.9219964 L10.7428051,12.8297216 L10.7428051,25.0904107 L10.5479565,26.0694376 C10.5409507,26.1046314 10.5488322,26.1379969 10.5694117,26.1613071 C10.5904291,26.1841602 10.6210794,26.1937585 10.6539191,26.1878167 L13.9431394,25.5808383 C14.0040022,25.5694117 14.0534806,25.5081654 14.0534806,25.4446338 L14.0534806,20.6971304 L14.5,20.6145753 L14.5,35.2059496 C14.5,35.5180054 14.1515853,35.6998867 13.899627,35.5193661 L0.240239353,25.7467598 L0.224013056,25.734967 C0.0833851414,25.6342746 0,25.4714432 0,25.2977261 L0,25.2927368 L0,15.3568456 L0,15.353217 C0,15.1785928 0.0838358719,15.0153078 0.224914517,14.9146154 L0.240239353,14.9032762 L14.5,4.70068611 L14.5,11.0541047 Z M14.5,20.6145753 L15.4428171,20.4402616 C17.3952444,20.0796396 18.8038468,19.1970528 19.6283412,17.8167255 C20.327607,16.6461896 20.4318182,15.3801278 20.4318182,14.7292715 C20.4318182,14.0816146 20.327607,12.8589736 19.6283412,11.9507914 C18.8038468,10.8794379 17.3956822,10.5192731 15.4428171,10.879895 L14.5,11.0541047 L14.5,0.384959481 C14.5,0.0729037348 14.8484147,-0.108977594 15.100373,0.0715430266 L28.7597606,9.8441493 L28.7759869,9.8559421 C28.9166149,9.95618094 29,10.1194659 29,10.293183 L29,10.2981723 L29,20.2340635 L29,20.2376921 C29,20.4123163 28.9161641,20.5756013 28.7750855,20.6762937 L28.7597606,20.6876329 L14.5,30.890223 L14.5,20.6145753 Z M14.0534806,17.3432092 L15.4607695,17.0831409 C16.4932484,16.8925461 16.9950384,16.3303598 16.9950384,15.3641306 C16.9950384,15.0089934 16.9950384,13.9280417 15.4607695,14.2114202 L14.0534806,14.4710314 L14.0534806,17.3432092 Z" id="Combined-Shape"></path>
            </g>
        </g>
    </g>
</svg>